# xmcd CD database file
#
# Track frame offsets:
#	150
#	16235
#	33619
#	51845
#	69610
#	88004
#	107854
#	132650
#	157910
#	180480
#	201371
#
# Disc length: 2870 seconds
#
# Revision: 0
# Processed by: cddbd v1.5.2PL0 Copyright (c) Steve Scherf et al.
# Submitted via: CDex 1.51
#
DISCID=980b340b
DTITLE=Diane Gauthier - La Solitude
DYEAR=2003
DGENRE=Country
TTITLE0=C'est Ma Priere
TTITLE1=Il Faut Croire toujours en toi
TTITLE2=Petite Soeur
TTITLE3=Un Jour a la fois
TTITLE4=La Famille
TTITLE5=Tant d'annees a donner
TTITLE6=La Solitude
TTITLE7=Un Adieu
TTITLE8=Ma priere La Serenite
TTITLE9=Apres L'Orage
TTITLE10=Notre Concerto
EXTD=YEAR: 2003
EXTT0=
EXTT1=
EXTT2=
EXTT3=
EXTT4=
EXTT5=
EXTT6=
EXTT7=
EXTT8=
EXTT9=
EXTT10=
PLAYORDER=
